<?xml version="1.0" encoding="utf-8"?><svg viewBox="0 0 24 24" xmlns="http://www.w3.org/2000/svg" xmlns:xlink="http://www.w3.org/1999/xlink"><style>:root>svg{display:none}:root>svg:target{display:block}</style><svg fill="none" stroke="#000" stroke-width="2" stroke-linecap="round" stroke-linejoin="round" viewBox="0 0 24 24" id="arrow-up" xmlns="http://www.w3.org/2000/svg"><path d="M12 19V6m-7 6l7-7 7 7"/></svg><svg viewBox="0 0 24 24" id="facebook" xmlns="http://www.w3.org/2000/svg"><path d="M24 12.07C24 5.41 18.63 0 12 0S0 5.4 0 12.07C0 18.1 4.39 23.1 10.13 24v-8.44H7.08v-3.49h3.04V9.41c0-3.02 1.8-4.7 4.54-4.7 1.31 0 2.68.24 2.68.24v2.97h-1.5c-1.5 0-1.96.93-1.96 1.89v2.26h3.32l-.53 3.5h-2.8V24C19.62 23.1 24 18.1 24 12.07"/></svg><svg fill="none" stroke="#000" stroke-width="2" stroke-linecap="round" stroke-linejoin="round" viewBox="0 0 24 24" id="inbox" xmlns="http://www.w3.org/2000/svg"><path d="M21.5 12H16c-.7 2-2 3-4 3s-3.3-1-4-3H2.5"/><path d="M5.5 5.1L2 12v6c0 1.1.9 2 2 2h16a2 2 0 002-2v-6l-3.4-6.9A2 2 0 0016.8 4H7.2a2 2 0 00-1.8 1.1z"/></svg><svg fill="none" stroke="#000" stroke-width="2" stroke-linecap="round" stroke-linejoin="round" viewBox="0 0 24 24" id="menu" xmlns="http://www.w3.org/2000/svg"><path d="M3 12h18M3 6h18M3 18h18"/></svg><svg fill="none" stroke="#000" stroke-width="2" stroke-linecap="round" stroke-linejoin="round" viewBox="0 0 24 24" id="user" xmlns="http://www.w3.org/2000/svg"><path d="M20 21v-2a4 4 0 00-4-4H8a4 4 0 00-4 4v2"/><circle cx="12" cy="7" r="4"/></svg></svg>