<svg width="137" height="32" viewBox="0 0 137 32" fill="none" xmlns="http://www.w3.org/2000/svg">
<path d="M48.462 22.18C47.322 22.18 46.338 21.994 45.51 21.622C44.694 21.238 44.058 20.686 43.602 19.966C43.158 19.234 42.912 18.346 42.864 17.302C42.852 16.786 42.846 16.24 42.846 15.664C42.846 15.076 42.852 14.518 42.864 13.99C42.912 12.97 43.164 12.106 43.62 11.398C44.076 10.69 44.718 10.15 45.546 9.778C46.374 9.406 47.346 9.22 48.462 9.22C49.362 9.22 50.16 9.334 50.856 9.562C51.552 9.778 52.134 10.072 52.602 10.444C53.082 10.816 53.442 11.224 53.682 11.668C53.934 12.112 54.066 12.55 54.078 12.982C54.09 13.09 54.054 13.18 53.97 13.252C53.898 13.324 53.808 13.36 53.7 13.36H51.072C50.94 13.36 50.838 13.342 50.766 13.306C50.706 13.258 50.652 13.192 50.604 13.108C50.52 12.928 50.394 12.742 50.226 12.55C50.07 12.346 49.848 12.172 49.56 12.028C49.284 11.884 48.918 11.812 48.462 11.812C47.778 11.812 47.238 11.992 46.842 12.352C46.458 12.712 46.248 13.288 46.212 14.08C46.176 15.112 46.176 16.156 46.212 17.212C46.248 18.052 46.47 18.658 46.878 19.03C47.286 19.402 47.826 19.588 48.498 19.588C48.954 19.588 49.356 19.51 49.704 19.354C50.064 19.198 50.346 18.958 50.55 18.634C50.754 18.298 50.856 17.872 50.856 17.356V17.014H49.164C49.032 17.014 48.918 16.972 48.822 16.888C48.738 16.792 48.696 16.678 48.696 16.546V15.214C48.696 15.082 48.738 14.974 48.822 14.89C48.918 14.794 49.032 14.746 49.164 14.746H53.7C53.832 14.746 53.94 14.794 54.024 14.89C54.108 14.974 54.15 15.082 54.15 15.214V17.266C54.15 18.298 53.916 19.18 53.448 19.912C52.98 20.644 52.314 21.208 51.45 21.604C50.598 21.988 49.602 22.18 48.462 22.18ZM60.4451 22.18C59.4371 22.18 58.5851 22.018 57.8891 21.694C57.2051 21.37 56.6771 20.908 56.3051 20.308C55.9451 19.696 55.7411 18.97 55.6931 18.13C55.6811 17.89 55.6751 17.62 55.6751 17.32C55.6751 17.008 55.6811 16.738 55.6931 16.51C55.7411 15.658 55.9571 14.932 56.3411 14.332C56.7251 13.732 57.2591 13.27 57.9431 12.946C58.6391 12.622 59.4731 12.46 60.4451 12.46C61.4291 12.46 62.2631 12.622 62.9471 12.946C63.6431 13.27 64.1831 13.732 64.5671 14.332C64.9511 14.932 65.1671 15.658 65.2151 16.51C65.2271 16.738 65.2331 17.008 65.2331 17.32C65.2331 17.62 65.2271 17.89 65.2151 18.13C65.1671 18.97 64.9571 19.696 64.5851 20.308C64.2251 20.908 63.6971 21.37 63.0011 21.694C62.3171 22.018 61.4651 22.18 60.4451 22.18ZM60.4451 19.984C60.9851 19.984 61.3751 19.822 61.6151 19.498C61.8671 19.174 62.0111 18.688 62.0471 18.04C62.0591 17.86 62.0651 17.62 62.0651 17.32C62.0651 17.02 62.0591 16.78 62.0471 16.6C62.0111 15.964 61.8671 15.484 61.6151 15.16C61.3751 14.824 60.9851 14.656 60.4451 14.656C59.9171 14.656 59.5271 14.824 59.2751 15.16C59.0231 15.484 58.8851 15.964 58.8611 16.6C58.8491 16.78 58.8431 17.02 58.8431 17.32C58.8431 17.62 58.8491 17.86 58.8611 18.04C58.8851 18.688 59.0231 19.174 59.2751 19.498C59.5271 19.822 59.9171 19.984 60.4451 19.984Z" fill="black"/>
<path d="M67.6514 22C67.5194 22 67.4114 21.958 67.3274 21.874C67.2434 21.79 67.2014 21.682 67.2014 21.55V9.85C67.2014 9.718 67.2434 9.61 67.3274 9.526C67.4114 9.442 67.5194 9.4 67.6514 9.4H72.3314C73.5074 9.4 74.5094 9.592 75.3374 9.976C76.1654 10.348 76.8014 10.9 77.2454 11.632C77.6894 12.352 77.9294 13.246 77.9654 14.314C77.9774 14.842 77.9834 15.304 77.9834 15.7C77.9834 16.096 77.9774 16.552 77.9654 17.068C77.9174 18.184 77.6774 19.108 77.2454 19.84C76.8254 20.572 76.2074 21.118 75.3914 21.478C74.5874 21.826 73.5974 22 72.4214 22H67.6514ZM70.4234 19.408H72.3314C72.8474 19.408 73.2734 19.33 73.6094 19.174C73.9574 19.006 74.2154 18.748 74.3834 18.4C74.5634 18.052 74.6594 17.596 74.6714 17.032C74.6954 16.684 74.7074 16.372 74.7074 16.096C74.7194 15.82 74.7194 15.544 74.7074 15.268C74.7074 14.992 74.6954 14.686 74.6714 14.35C74.6474 13.534 74.4314 12.94 74.0234 12.568C73.6274 12.184 73.0334 11.992 72.2414 11.992H70.4234V19.408ZM82.6962 22.18C82.0482 22.18 81.4662 22.06 80.9502 21.82C80.4462 21.568 80.0442 21.232 79.7442 20.812C79.4442 20.392 79.2942 19.918 79.2942 19.39C79.2942 18.538 79.6422 17.866 80.3382 17.374C81.0342 16.87 81.9582 16.528 83.1102 16.348L85.3602 16.006V15.754C85.3602 15.322 85.2702 14.992 85.0902 14.764C84.9102 14.536 84.5802 14.422 84.1002 14.422C83.7642 14.422 83.4882 14.488 83.2722 14.62C83.0682 14.752 82.9062 14.932 82.7862 15.16C82.6782 15.316 82.5282 15.394 82.3362 15.394H80.3202C80.1882 15.394 80.0862 15.358 80.0142 15.286C79.9422 15.202 79.9122 15.106 79.9242 14.998C79.9242 14.782 80.0022 14.536 80.1582 14.26C80.3262 13.972 80.5782 13.69 80.9142 13.414C81.2502 13.138 81.6822 12.91 82.2102 12.73C82.7382 12.55 83.3742 12.46 84.1182 12.46C84.8982 12.46 85.5642 12.55 86.1162 12.73C86.6682 12.91 87.1122 13.162 87.4482 13.486C87.7962 13.81 88.0542 14.194 88.2222 14.638C88.3902 15.07 88.4742 15.55 88.4742 16.078V21.55C88.4742 21.682 88.4262 21.79 88.3302 21.874C88.2462 21.958 88.1442 22 88.0242 22H85.9362C85.8042 22 85.6962 21.958 85.6122 21.874C85.5282 21.79 85.4862 21.682 85.4862 21.55V20.92C85.3302 21.148 85.1202 21.358 84.8562 21.55C84.5922 21.742 84.2802 21.892 83.9202 22C83.5722 22.12 83.1642 22.18 82.6962 22.18ZM83.5422 20.128C83.8902 20.128 84.2022 20.056 84.4782 19.912C84.7662 19.756 84.9882 19.522 85.1442 19.21C85.3122 18.886 85.3962 18.484 85.3962 18.004V17.752L83.8662 18.022C83.3022 18.118 82.8882 18.268 82.6242 18.472C82.3722 18.664 82.2462 18.892 82.2462 19.156C82.2462 19.36 82.3062 19.534 82.4262 19.678C82.5462 19.822 82.7022 19.936 82.8942 20.02C83.0862 20.092 83.3022 20.128 83.5422 20.128ZM90.9554 22C90.8234 22 90.7154 21.958 90.6314 21.874C90.5474 21.79 90.5054 21.682 90.5054 21.55V13.09C90.5054 12.958 90.5474 12.85 90.6314 12.766C90.7154 12.682 90.8234 12.64 90.9554 12.64H93.0254C93.1574 12.64 93.2654 12.682 93.3494 12.766C93.4334 12.85 93.4754 12.958 93.4754 13.09V13.774C93.7874 13.402 94.1954 13.09 94.6994 12.838C95.2034 12.586 95.7974 12.46 96.4814 12.46C97.1774 12.46 97.7894 12.616 98.3174 12.928C98.8574 13.24 99.2774 13.702 99.5774 14.314C99.8894 14.914 100.045 15.652 100.045 16.528V21.55C100.045 21.682 99.9974 21.79 99.9014 21.874C99.8174 21.958 99.7154 22 99.5954 22H97.3274C97.2074 22 97.0994 21.958 97.0034 21.874C96.9194 21.79 96.8774 21.682 96.8774 21.55V16.636C96.8774 16.072 96.7394 15.64 96.4634 15.34C96.1994 15.028 95.8034 14.872 95.2754 14.872C94.7834 14.872 94.3874 15.028 94.0874 15.34C93.7994 15.64 93.6554 16.072 93.6554 16.636V21.55C93.6554 21.682 93.6074 21.79 93.5114 21.874C93.4274 21.958 93.3254 22 93.2054 22H90.9554ZM106.754 22C105.986 22 105.32 21.88 104.756 21.64C104.204 21.388 103.778 21.004 103.478 20.488C103.178 19.96 103.028 19.282 103.028 18.454V14.998H101.624C101.492 14.998 101.378 14.956 101.282 14.872C101.198 14.788 101.156 14.68 101.156 14.548V13.09C101.156 12.958 101.198 12.85 101.282 12.766C101.378 12.682 101.492 12.64 101.624 12.64H103.028V9.67C103.028 9.538 103.07 9.43 103.154 9.346C103.25 9.262 103.358 9.22 103.478 9.22H105.566C105.698 9.22 105.806 9.262 105.89 9.346C105.974 9.43 106.016 9.538 106.016 9.67V12.64H108.266C108.398 12.64 108.506 12.682 108.59 12.766C108.674 12.85 108.716 12.958 108.716 13.09V14.548C108.716 14.68 108.674 14.788 108.59 14.872C108.506 14.956 108.398 14.998 108.266 14.998H106.016V18.202C106.016 18.61 106.094 18.934 106.25 19.174C106.406 19.414 106.67 19.534 107.042 19.534H108.428C108.56 19.534 108.668 19.576 108.752 19.66C108.836 19.744 108.878 19.852 108.878 19.984V21.55C108.878 21.682 108.836 21.79 108.752 21.874C108.668 21.958 108.56 22 108.428 22H106.754ZM114.689 22.18C113.273 22.18 112.145 21.796 111.305 21.028C110.465 20.26 110.027 19.12 109.991 17.608C109.991 17.524 109.991 17.416 109.991 17.284C109.991 17.152 109.991 17.05 109.991 16.978C110.027 16.03 110.237 15.22 110.621 14.548C111.017 13.864 111.557 13.348 112.241 13C112.937 12.64 113.747 12.46 114.671 12.46C115.727 12.46 116.597 12.67 117.281 13.09C117.977 13.51 118.499 14.08 118.847 14.8C119.195 15.52 119.369 16.342 119.369 17.266V17.698C119.369 17.83 119.321 17.938 119.225 18.022C119.141 18.106 119.039 18.148 118.919 18.148H113.159C113.159 18.16 113.159 18.178 113.159 18.202C113.159 18.226 113.159 18.25 113.159 18.274C113.171 18.622 113.231 18.94 113.339 19.228C113.447 19.516 113.615 19.744 113.843 19.912C114.071 20.08 114.347 20.164 114.671 20.164C114.911 20.164 115.109 20.128 115.265 20.056C115.433 19.972 115.571 19.882 115.679 19.786C115.787 19.678 115.871 19.588 115.931 19.516C116.039 19.396 116.123 19.324 116.183 19.3C116.255 19.264 116.363 19.246 116.507 19.246H118.739C118.859 19.246 118.955 19.282 119.027 19.354C119.111 19.414 119.147 19.504 119.135 19.624C119.123 19.828 119.021 20.074 118.829 20.362C118.637 20.65 118.355 20.938 117.983 21.226C117.623 21.502 117.167 21.73 116.615 21.91C116.063 22.09 115.421 22.18 114.689 22.18ZM113.159 16.366H116.201V16.33C116.201 15.946 116.141 15.61 116.021 15.322C115.913 15.034 115.739 14.812 115.499 14.656C115.271 14.5 114.995 14.422 114.671 14.422C114.347 14.422 114.071 14.5 113.843 14.656C113.627 14.812 113.459 15.034 113.339 15.322C113.219 15.61 113.159 15.946 113.159 16.33V16.366Z" fill="#266DD3"/>
<path d="M29.3851 7.2102L29.3823 7.00379C29.2986 4.76695 28.4765 3.18489 26.7907 2.02093C25.3999 1.08344 23.4367 0.566864 21.2301 0.566864H21.1903C19.43 0.566864 17.587 0.924139 16.2666 1.52229L16.0123 1.63412L15.7648 1.52405C14.7408 1.05777 13.3254 0.724402 11.8822 0.60871C11.866 0.607304 11.8474 0.606249 11.8309 0.606952L9.39288 0.639304C9.3746 0.639655 9.35596 0.64071 9.33767 0.643172C7.71552 0.827084 6.29592 1.30427 5.22901 2.0262C3.54743 3.18594 2.72458 4.76765 2.64123 7.02172L2.63842 7.25732C2.63737 7.35262 2.63596 7.44405 2.63596 7.53478C2.66233 10.7383 3.3906 12.051 4.23315 13.5701L4.37029 13.8187C5.33732 15.4898 6.27868 17.4175 6.25301 20.9688C6.24915 25.8208 7.13741 28.3344 7.88431 29.5923C8.74233 31.0196 9.17134 31.4338 10.3582 31.4338C11.6164 31.4338 12.1653 30.2527 12.2261 29.4702C12.282 28.8988 12.2933 28.2321 12.3045 27.526C12.3309 25.8743 12.3636 23.8186 12.9871 21.7118L13.0068 21.6489C13.2557 20.8394 13.5645 19.8319 14.1475 18.9528C14.5125 18.4021 15.2942 17.8099 16.1495 17.8099C16.8281 17.8099 17.4077 18.1894 17.8725 18.9387C18.4288 19.8358 18.7615 20.8014 19.0379 21.7069C19.6621 23.8059 19.9328 26.2404 19.7595 28.2177C19.6578 29.3918 19.8671 30.2731 20.3847 30.8375C20.9048 31.405 21.5462 31.4338 21.6696 31.4338H21.6707C22.7552 31.4338 23.2626 31.0555 24.1417 29.5891C24.8883 28.3362 25.7762 25.8226 25.7737 20.9656C25.7491 17.4171 26.6908 15.488 27.6631 13.8064L27.7918 13.574C28.6344 12.0545 29.3609 10.7418 29.3904 7.52985C29.3894 7.42541 29.388 7.31992 29.3851 7.2102Z" fill="#F5F5F5"/>
<path d="M29.6513 7.22005L29.6475 6.99289C29.5596 4.66146 28.6998 3.00977 26.9338 1.7906C25.497 0.822513 23.4792 0.289062 21.2188 0.289062H21.1777C19.3797 0.289062 17.4942 0.656183 16.1407 1.2684L16 1.331L15.8671 1.27227C14.7995 0.785942 13.3876 0.452227 11.892 0.332667C11.8671 0.330557 11.8404 0.329502 11.815 0.330205L9.37706 0.362205C9.34892 0.362557 9.32185 0.363964 9.29407 0.367128C7.62761 0.555964 6.1658 1.04897 5.05952 1.79763C3.29952 3.01082 2.43903 4.66216 2.35183 7.01856L2.34866 7.24748C2.34725 7.34594 2.34585 7.44018 2.34585 7.53583C2.37398 10.8107 3.11736 12.1512 3.9782 13.7041L4.11816 13.9566C5.06514 15.5939 5.98787 17.4836 5.96325 20.9677C5.95903 25.8831 6.8684 28.4459 7.63358 29.734C8.47824 31.1385 8.95965 31.7106 10.3451 31.7106C11.6389 31.7106 12.404 30.5888 12.4895 29.4963C12.5461 28.9143 12.557 28.2433 12.5683 27.5327C12.5946 25.8971 12.627 23.8622 13.2399 21.7924L13.2568 21.7371C13.5001 20.9428 13.8029 19.9539 14.3655 19.1054C14.701 18.5994 15.4173 18.0867 16.1368 18.0867C16.7135 18.0867 17.2139 18.4229 17.6246 19.084C18.1647 19.9564 18.4907 20.9006 18.7597 21.786C19.3744 23.853 19.641 26.2488 19.4715 28.1941C19.3614 29.4484 19.596 30.4007 20.1674 31.0252C20.7511 31.6617 21.4551 31.7113 21.657 31.7113H21.658C22.9683 31.7113 23.5291 31.1286 24.3671 29.7315C25.1309 28.4477 26.0403 25.8852 26.0374 20.9635C26.0128 17.4861 26.9366 15.5942 27.8931 13.94L28.0211 13.7073C28.8816 12.1551 29.6243 10.8146 29.6538 7.52915C29.6545 7.42858 29.6531 7.3259 29.6513 7.22005ZM26.5688 12.902L26.4471 13.1228C25.4305 14.88 24.3488 17.0803 24.3766 20.9695C24.3791 25.747 23.4767 27.9768 22.9408 28.8784C22.2421 30.0427 22.0948 30.0484 21.6651 30.0484C21.639 30.0462 21.5022 30.0283 21.3816 29.8884C21.2494 29.7354 21.0402 29.3299 21.1274 28.3383C21.3162 26.1633 21.0338 23.6026 20.3509 21.3074C20.0478 20.3091 19.6786 19.2433 19.0365 18.2084C18.323 17.0581 17.293 16.4248 16.1368 16.4248C14.7633 16.4248 13.5617 17.3106 12.9797 18.1876C12.2845 19.2369 11.9427 20.3534 11.6673 21.2508L11.6484 21.3131C10.9686 23.6086 10.9342 25.7699 10.9067 27.5063C10.8955 28.2117 10.886 28.8204 10.8339 29.351C10.8332 29.3581 10.7678 30.0484 10.3455 30.0484C9.82892 30.0484 9.76246 30.0484 9.06128 28.8819C8.52396 27.9768 7.62198 25.7459 7.6262 20.9755C7.65433 17.0789 6.57301 14.88 5.56589 13.1401L5.43297 12.8992C4.62031 11.4335 4.03306 10.3747 4.00914 7.5295C4.00914 7.44897 4.01055 7.36387 4.01196 7.27456L4.01477 7.05548C4.08194 5.24484 4.67657 4.08124 5.99842 3.17082C6.86875 2.58181 8.05837 2.1855 9.44211 2.02374L11.7989 1.9928C13.0743 2.09864 14.3047 2.387 15.1873 2.78928L15.6396 2.98902L18.8807 4.70893C19.0045 4.77469 19.1378 4.80598 19.2693 4.80598C19.5671 4.80598 19.8548 4.64599 20.0042 4.36467C20.2194 3.95886 20.0651 3.45601 19.6596 3.2408L18.0185 2.37012C18.9904 2.10673 20.1203 1.95201 21.2146 1.95201H21.2149C21.2153 1.95201 21.2522 1.95201 21.2529 1.95201C23.1251 1.95201 24.8577 2.39614 25.9981 3.16414C27.3238 4.07983 27.9184 5.24379 27.9866 7.03332L27.9898 7.24853C27.9916 7.34489 27.9933 7.43842 27.9933 7.52212C27.9673 10.3782 27.3804 11.4367 26.5688 12.902Z" fill="#266DD3"/>
<path d="M7.9149 11.981C7.5724 11.981 7.24396 11.7901 7.08396 11.462C6.12044 9.48467 6.10251 5.85741 8.5746 4.18849C8.99728 3.9026 9.57117 4.01478 9.8567 4.43746C10.1419 4.86014 10.0308 5.43403 9.60774 5.71957C8.10655 6.73302 8.09354 9.31834 8.74374 10.6532C8.96703 11.1121 8.77679 11.6642 8.31824 11.8875C8.18849 11.9508 8.05099 11.981 7.9149 11.981Z" fill="white"/>
</svg>
